<svg width="39" height="26" viewBox="0 0 39 26" fill="none" xmlns="http://www.w3.org/2000/svg">
<path d="M21.6003 6.59668H16.8234C16.7796 6.65511 16.7211 6.69894 16.6773 6.74276H21.7318C21.6879 6.69894 21.6441 6.6405 21.6003 6.59668Z" fill="white"/>
<path d="M16.6773 6.74276H19.0439V9.25538H13.9164C13.8725 9.2992 13.8287 9.35763 13.7995 9.40146H19.1899V6.59668H16.8234C16.7796 6.65511 16.7211 6.69894 16.6773 6.74276Z" fill="white"/>
<path d="M24.3905 9.25538H19.1899V6.74276H21.7464C21.7026 6.69894 21.6587 6.6405 21.6149 6.59668H19.0585V9.40146H24.5512C24.5073 9.35763 24.4489 9.2992 24.4051 9.25538H24.3905Z" fill="white"/>
<path d="M13.7995 9.40145H16.3413V11.9141H11.7105C11.6667 11.9579 11.6229 12.0163 11.579 12.0602H16.4874V9.25537H13.9164C13.8725 9.2992 13.8287 9.35763 13.7995 9.40145Z" fill="white"/>
<path d="M21.8925 12.0748H16.3414V9.27002H21.8925V12.0748ZM16.4875 11.9287H21.7464V9.4161H16.4875V11.9287Z" fill="white"/>
<path d="M27.0491 11.9287H21.8924V9.4161H24.5365C24.4927 9.37228 24.4342 9.31384 24.3904 9.27002H21.7463V12.0748H27.1952C27.1514 12.031 27.0929 11.9725 27.0491 11.9287Z" fill="white"/>
<path d="M11.579 12.0748H13.6387V14.5874H8.90565C8.84721 14.6312 8.78878 14.6897 8.73035 14.7335H13.7848V11.9287H11.7104C11.6666 11.9725 11.6228 12.031 11.579 12.0748Z" fill="white"/>
<path d="M19.1899 14.7335H13.6388V11.9287H19.1899V14.7335ZM13.7849 14.5874H19.0438V12.0748H13.7849V14.5874Z" fill="white"/>
<path d="M24.6096 14.7335H19.0585V11.9287H24.6096V14.7335ZM19.1899 14.5874H24.4489V12.0748H19.1899V14.5874Z" fill="white"/>
<path d="M29.7662 14.5874H24.6095V12.0748H27.2098C27.166 12.031 27.1075 11.9725 27.0637 11.9287H24.4634V14.7335H29.9123C29.8685 14.6897 29.8101 14.6312 29.7662 14.5874Z" fill="white"/>
<path d="M8.73039 14.7335H10.9362V17.2461H6.27621C6.24699 17.2753 6.20317 17.3191 6.17395 17.3484C6.17395 17.3484 6.14474 17.3776 6.13013 17.3922H11.0823V14.5874H8.90569C8.84726 14.6312 8.78882 14.6897 8.73039 14.7335Z" fill="white"/>
<path d="M16.4874 17.3922H10.9363V14.5874H16.4874V17.3922ZM11.0677 17.2461H16.3267V14.7335H11.0677V17.2461Z" fill="white"/>
<path d="M21.8925 17.3922H16.3414V14.5874H21.8925V17.3922ZM16.4875 17.2461H21.7464V14.7335H16.4875V17.2461Z" fill="white"/>
<path d="M27.3121 17.3922H21.761V14.5874H27.3121V17.3922ZM21.8925 17.2461H27.1514V14.7335H21.8925V17.2461Z" fill="white"/>
<path d="M32.3665 17.2461H27.312V14.7335H29.9123C29.8685 14.6897 29.81 14.6312 29.7662 14.5874H27.166V17.3922H32.5126C32.4687 17.3484 32.4103 17.2899 32.3665 17.2461Z" fill="white"/>
<path d="M6.15938 17.363C6.15938 17.363 6.13016 17.3922 6.11556 17.4068H8.21914V19.9194H3.45686C3.41303 19.9633 3.3692 20.0217 3.32538 20.0655H8.36522V17.2607H6.26164C6.23242 17.29 6.1886 17.3338 6.15938 17.363Z" fill="white"/>
<path d="M8.21918 17.2461V20.0509H11.8274C11.8566 19.9924 11.9151 19.9486 11.9735 19.9048H8.36526V17.3922H13.6242V19.4227C13.668 19.3935 13.7119 19.3789 13.7703 19.3643V17.2461H8.21918Z" fill="white"/>
<path d="M19.0438 18.7069C19.0731 18.7069 19.1169 18.7069 19.1461 18.7069C19.1753 18.7069 19.1753 18.7069 19.1899 18.7069V17.2461H13.6388V19.4227C13.6826 19.3935 13.7264 19.3789 13.7849 19.3643V17.3922H19.0438V18.7069Z" fill="white"/>
<path d="M24.4635 19.3497C24.5073 19.3497 24.5658 19.3643 24.6096 19.3935V17.2461H19.0585V18.7069C19.0877 18.7069 19.1315 18.7069 19.1607 18.7069C19.1899 18.7069 19.1899 18.7069 19.2046 18.7069V17.3922H24.4635V19.3497Z" fill="white"/>
<path d="M24.4634 17.2461V19.3497C24.5073 19.3497 24.5657 19.3643 24.6095 19.3935V17.3922H29.8685V19.9048H26.3479C26.3625 19.9486 26.3771 20.0071 26.3771 20.0509H30.0146V17.2461H24.4634Z" fill="white"/>
<path d="M35.0837 19.9194H30.0146V17.4068H32.5126C32.4688 17.363 32.4104 17.3046 32.3665 17.2607H29.8685V20.0655H35.2297C35.1859 20.0217 35.1275 19.9633 35.0837 19.9194Z" fill="white"/>
<path d="M3.32542 20.0655H5.51666V22.5781H0.768982C0.768982 22.622 0.768982 22.6804 0.768982 22.7242H5.66274V19.9194H3.4569C3.41308 19.9633 3.36925 20.0217 3.32542 20.0655Z" fill="white"/>
<path d="M11.0677 22.7242H5.5166V19.9194H11.0677V22.7242ZM5.66268 22.5781H10.9216V20.0655H5.66268V22.5781Z" fill="white"/>
<path d="M11.8566 22.5781H11.0823V20.0655H11.842C11.8712 20.0071 11.9296 19.9633 11.9881 19.9194H10.9509V22.7242H11.8566C11.8566 22.6804 11.8566 22.622 11.8712 22.5781H11.8566Z" fill="white"/>
<path d="M26.348 19.9194C26.3626 19.9633 26.3772 20.0217 26.3772 20.0655H27.166V22.5781H26.421C26.421 22.622 26.421 22.6804 26.421 22.7242H27.3267V19.9194H26.3772H26.348Z" fill="white"/>
<path d="M32.7171 22.7242H27.166V19.9194H32.7171V22.7242ZM27.312 22.5781H32.571V20.0655H27.312V22.5781Z" fill="white"/>
<path d="M32.7171 20.0655H35.2297C35.1859 20.0217 35.1275 19.9633 35.0836 19.9194H32.5856V22.7242H37.6547C37.6547 22.6804 37.6547 22.622 37.6547 22.5781H32.7317V20.0655H32.7171Z" fill="white"/>
<path d="M0.768945 22.5781C0.768945 22.6219 0.768945 22.6804 0.768945 22.7242H2.79949V25.2368H0.549822C0.549822 25.2807 0.549826 25.3391 0.535217 25.3829H2.96018V22.5781H0.783559H0.768945Z" fill="white"/>
<path d="M8.36522 25.3829H2.81409V22.5781H8.36522V25.3829ZM2.96017 25.2368H8.21913V22.7242H2.96017V25.2368Z" fill="white"/>
<path d="M8.36515 25.2368V22.7242H11.8273C11.8273 22.6804 11.8273 22.6219 11.8419 22.5781H8.20447V25.3829H13.3904V25.2368H8.35055H8.36515Z" fill="white"/>
<path d="M26.421 22.5781C26.421 22.6219 26.421 22.6804 26.421 22.7242H29.8832V25.2368H24.8433V25.3829H30.0292V22.5781H26.4356H26.421Z" fill="white"/>
<path d="M35.4197 25.3829H29.8685V22.5781H35.4197V25.3829ZM30.0146 25.2368H35.2736V22.7242H30.0146V25.2368Z" fill="white"/>
<path d="M37.5816 25.2368H35.4196V22.7242H37.6255C37.6255 22.6804 37.6255 22.6219 37.6255 22.5781H35.2589V25.3829H37.5524C37.5524 25.3391 37.5524 25.2807 37.5524 25.2368H37.5816Z" fill="white"/>
<path d="M38.1368 25.3826H36.8221V19.6854L19.1169 1.98025L1.42631 19.6854V25.3826H0.111572V19.1303L19.1169 0.125L38.1368 19.1303V25.3826Z" fill="white"/>
<path d="M19.3067 3.93799L0.783508 22.4612C0.900374 22.6365 0.988022 22.8264 1.04645 23.0163L19.2921 4.77066L37.231 22.7096C37.2749 22.4904 37.3625 22.2859 37.4648 22.1252L19.2921 3.9526L19.3067 3.93799Z" fill="white"/>
<path d="M13.7556 21.76H24.4197V25.3828H24.5219V21.6577H13.6534V25.3828H13.7556V21.76Z" fill="white"/>
<path d="M13.3758 24.3016H11.8566V19.9775C16.5166 18.3268 21.6441 18.3268 26.3041 19.9775V24.3016H24.7849V25.368H24.8871V24.3892H26.4064V19.9045H26.3772C21.6733 18.2245 16.502 18.2245 11.7981 19.9045H11.7689V24.4038H13.2882V25.3388H13.3904V24.3016H13.3758Z" fill="white"/>
<path d="M26.0119 24.0824H24.478V23.9801H25.9242V20.2258C21.5272 18.7942 16.6772 18.7942 12.2802 20.2258V23.9801H13.7264V24.0824H12.1925V20.1674H12.2217C16.6626 18.7066 21.5564 18.7066 25.9973 20.1674H26.0265V24.097L26.0119 24.0824Z" fill="white"/>
</svg>
