<svg width="39" height="26" viewBox="0 0 39 26" fill="none" xmlns="http://www.w3.org/2000/svg">
<path d="M21.6003 6.90903H16.8234C16.7796 6.96747 16.7211 7.01129 16.6773 7.05512H21.7318C21.6879 7.01129 21.6441 6.95286 21.6003 6.90903Z" fill="#008D36"/>
<path d="M16.6773 7.05512H19.0439V9.56773H13.9164C13.8725 9.61156 13.8287 9.66999 13.7995 9.71381H19.1899V6.90903H16.8234C16.7796 6.96747 16.7211 7.01129 16.6773 7.05512Z" fill="#008D36"/>
<path d="M24.3905 9.56773H19.1899V7.05512H21.7464C21.7026 7.01129 21.6587 6.95286 21.6149 6.90903H19.0585V9.71381H24.5512C24.5073 9.66999 24.4489 9.61156 24.4051 9.56773H24.3905Z" fill="#008D36"/>
<path d="M13.7995 9.71382H16.3413V12.2264H11.7105C11.6667 12.2703 11.6229 12.3287 11.579 12.3725H16.4874V9.56773H13.9164C13.8725 9.61156 13.8287 9.66999 13.7995 9.71382Z" fill="#008D36"/>
<path d="M21.8925 12.3871H16.3414V9.58234H21.8925V12.3871ZM16.4875 12.241H21.7464V9.72843H16.4875V12.241Z" fill="#008D36"/>
<path d="M27.0491 12.241H21.8924V9.72843H24.5365C24.4927 9.6846 24.4342 9.62617 24.3904 9.58234H21.7463V12.3871H27.1952C27.1514 12.3433 27.0929 12.2849 27.0491 12.241Z" fill="#008D36"/>
<path d="M11.579 12.3871H13.6387V14.8997H8.90565C8.84721 14.9436 8.78878 15.002 8.73035 15.0458H13.7848V12.241H11.7104C11.6666 12.2849 11.6228 12.3433 11.579 12.3871Z" fill="#008D36"/>
<path d="M19.1899 15.0458H13.6388V12.241H19.1899V15.0458ZM13.7849 14.8997H19.0438V12.3871H13.7849V14.8997Z" fill="#008D36"/>
<path d="M24.6096 15.0458H19.0585V12.241H24.6096V15.0458ZM19.1899 14.8997H24.4489V12.3871H19.1899V14.8997Z" fill="#008D36"/>
<path d="M29.7662 14.8997H24.6095V12.3871H27.2098C27.166 12.3433 27.1075 12.2849 27.0637 12.241H24.4634V15.0458H29.9123C29.8685 15.002 29.8101 14.9436 29.7662 14.8997Z" fill="#008D36"/>
<path d="M8.73039 15.0458H10.9362V17.5584H6.27621C6.24699 17.5877 6.20317 17.6315 6.17395 17.6607C6.17395 17.6607 6.14474 17.6899 6.13013 17.7045H11.0823V14.8997H8.90569C8.84726 14.9436 8.78882 15.002 8.73039 15.0458Z" fill="#008D36"/>
<path d="M16.4874 17.7045H10.9363V14.8997H16.4874V17.7045ZM11.0677 17.5584H16.3267V15.0458H11.0677V17.5584Z" fill="#008D36"/>
<path d="M21.8925 17.7045H16.3414V14.8997H21.8925V17.7045ZM16.4875 17.5584H21.7464V15.0458H16.4875V17.5584Z" fill="#008D36"/>
<path d="M27.3121 17.7045H21.761V14.8997H27.3121V17.7045ZM21.8925 17.5584H27.1514V15.0458H21.8925V17.5584Z" fill="#008D36"/>
<path d="M32.3665 17.5584H27.312V15.0458H29.9123C29.8685 15.002 29.81 14.9436 29.7662 14.8997H27.166V17.7045H32.5126C32.4687 17.6607 32.4103 17.6023 32.3665 17.5584Z" fill="#008D36"/>
<path d="M6.15938 17.6753C6.15938 17.6753 6.13016 17.7045 6.11556 17.7191H8.21914V20.2317H3.45686C3.41303 20.2756 3.3692 20.334 3.32538 20.3778H8.36522V17.573H6.26164C6.23242 17.6023 6.1886 17.6461 6.15938 17.6753Z" fill="#008D36"/>
<path d="M8.21918 17.5584V20.3632H11.8274C11.8566 20.3048 11.9151 20.261 11.9735 20.2171H8.36526V17.7045H13.6242V19.7351C13.668 19.7058 13.7119 19.6912 13.7703 19.6766V17.5584H8.21918Z" fill="#008D36"/>
<path d="M19.0438 19.0192C19.0731 19.0192 19.1169 19.0192 19.1461 19.0192C19.1753 19.0192 19.1753 19.0192 19.1899 19.0192V17.5584H13.6388V19.7351C13.6826 19.7058 13.7264 19.6912 13.7849 19.6766V17.7045H19.0438V19.0192Z" fill="#008D36"/>
<path d="M24.4635 19.662C24.5073 19.662 24.5658 19.6766 24.6096 19.7058V17.5584H19.0585V19.0192C19.0877 19.0192 19.1315 19.0192 19.1607 19.0192C19.1899 19.0192 19.1899 19.0192 19.2046 19.0192V17.7045H24.4635V19.662Z" fill="#008D36"/>
<path d="M24.4634 17.5584V19.662C24.5073 19.662 24.5657 19.6766 24.6095 19.7058V17.7045H29.8685V20.2171H26.3479C26.3625 20.261 26.3771 20.3194 26.3771 20.3632H30.0146V17.5584H24.4634Z" fill="#008D36"/>
<path d="M35.0837 20.2317H30.0146V17.7191H32.5126C32.4688 17.6753 32.4104 17.6169 32.3665 17.573H29.8685V20.3778H35.2297C35.1859 20.334 35.1275 20.2756 35.0837 20.2317Z" fill="#008D36"/>
<path d="M3.32542 20.3778H5.51666V22.8905H0.768982C0.768982 22.9343 0.768982 22.9927 0.768982 23.0365H5.66274V20.2318H3.4569C3.41308 20.2756 3.36925 20.334 3.32542 20.3778Z" fill="#008D36"/>
<path d="M11.0677 23.0365H5.5166V20.2318H11.0677V23.0365ZM5.66268 22.8905H10.9216V20.3778H5.66268V22.8905Z" fill="#008D36"/>
<path d="M11.8566 22.8905H11.0823V20.3778H11.842C11.8712 20.3194 11.9296 20.2756 11.9881 20.2318H10.9509V23.0365H11.8566C11.8566 22.9927 11.8566 22.9343 11.8712 22.8905H11.8566Z" fill="#008D36"/>
<path d="M26.348 20.2318C26.3626 20.2756 26.3772 20.334 26.3772 20.3778H27.166V22.8905H26.421C26.421 22.9343 26.421 22.9927 26.421 23.0365H27.3267V20.2318H26.3772H26.348Z" fill="#008D36"/>
<path d="M32.7171 23.0365H27.166V20.2318H32.7171V23.0365ZM27.312 22.8905H32.571V20.3778H27.312V22.8905Z" fill="#008D36"/>
<path d="M32.7171 20.3778H35.2297C35.1859 20.334 35.1275 20.2756 35.0836 20.2318H32.5856V23.0365H37.6547C37.6547 22.9927 37.6547 22.9343 37.6547 22.8905H32.7317V20.3778H32.7171Z" fill="#008D36"/>
<path d="M0.768945 22.8904C0.768945 22.9343 0.768945 22.9927 0.768945 23.0365H2.79949V25.5491H0.549822C0.549822 25.593 0.549826 25.6514 0.535217 25.6952H2.96018V22.8904H0.783559H0.768945Z" fill="#008D36"/>
<path d="M8.36522 25.6952H2.81409V22.8904H8.36522V25.6952ZM2.96017 25.5491H8.21913V23.0365H2.96017V25.5491Z" fill="#008D36"/>
<path d="M8.36515 25.5491V23.0365H11.8273C11.8273 22.9927 11.8273 22.9343 11.8419 22.8904H8.20447V25.6952H13.3904V25.5491H8.35055H8.36515Z" fill="#008D36"/>
<path d="M26.421 22.8904C26.421 22.9343 26.421 22.9927 26.421 23.0365H29.8832V25.5491H24.8433V25.6952H30.0292V22.8904H26.4356H26.421Z" fill="#008D36"/>
<path d="M35.4197 25.6952H29.8685V22.8904H35.4197V25.6952ZM30.0146 25.5491H35.2736V23.0365H30.0146V25.5491Z" fill="#008D36"/>
<path d="M37.5816 25.5491H35.4196V23.0365H37.6255C37.6255 22.9927 37.6255 22.9343 37.6255 22.8904H35.2589V25.6952H37.5524C37.5524 25.6514 37.5524 25.593 37.5524 25.5491H37.5816Z" fill="#008D36"/>
<path d="M38.1368 25.6952H36.8221V19.998L19.1169 2.29283L1.42631 19.998V25.6952H0.111572V19.4429L19.1169 0.437584L38.1368 19.4429V25.6952Z" fill="#008D36"/>
<path d="M19.3067 4.25034L0.783508 22.7736C0.900374 22.9489 0.988022 23.1388 1.04645 23.3287L19.2921 5.08301L37.231 23.0219C37.2749 22.8028 37.3625 22.5983 37.4648 22.4376L19.2921 4.26494L19.3067 4.25034Z" fill="#008D36"/>
<path d="M13.7556 22.0724H24.4197V25.6953H24.5219V21.9702H13.6534V25.6953H13.7556V22.0724Z" fill="#008D36"/>
<path d="M13.3758 24.6142H11.8566V20.2902C16.5166 18.6395 21.6441 18.6395 26.3041 20.2902V24.6142H24.7849V25.6806H24.8871V24.7019H26.4064V20.2171H26.3772C21.6733 18.5372 16.502 18.5372 11.7981 20.2171H11.7689V24.7165H13.2882V25.6514H13.3904V24.6142H13.3758Z" fill="#008D36"/>
<path d="M26.0119 24.3951H24.478V24.2928H25.9242V20.5385C21.5272 19.1069 16.6772 19.1069 12.2802 20.5385V24.2928H13.7264V24.3951H12.1925V20.4801H12.2217C16.6626 19.0193 21.5564 19.0193 25.9973 20.4801H26.0265V24.4097L26.0119 24.3951Z" fill="#008D36"/>
</svg>
